#!OML:ASF F:\VICON\USERDATA\INSTALL\rory3\rory3.ASF
:FULLY-SPECIFIED
:DEGREES
32
root 1.2127 17.914 -17.8992 127.188 -92.225 -125.813
lowerback 31.1684 0.124291 2.38208
upperback 7.52655 0.659261 6.91521
thorax -8.02091 -0.143891 5.85913
lowerneck -8.6247 -0.598207 -3.27907
upperneck 25.3984 1.19104 -9.17924
head 9.49586 -1.00211 -2.54535
rclavicle -1.27222e-014 -1.90833e-014
rhumerus -33.036 -42.1224 -49.0641
rradius 92.721
rwrist -43.4374
rhand 8.94174 0.457449
rfingers 7.12502
rthumb 34.1219 -26.2992
lclavicle -1.27222e-014 -1.90833e-014
lhumerus -46.6926 6.88631 84.7956
lradius 45.987
lwrist 7.53794
lhand -15.2151 50.4558
lfingers 7.12502
lthumb 10.9572 80.1498
rfemur -26.8518 -1.50171 8.82438
rtibia 52.45
rfoot -7.54326 -18.2498
rtoes 11.7756
lfemur -23.3559 0.164358 -28.0132
ltibia 39.2256
lfoot 1.20267 -12.4857
ltoes -6.91482
33
root 1.26042 18.0156 -17.7806 145.06 -92.7474 -143.195
lowerback 30.9487 -0.153063 2.60555
upperback 7.36672 0.405958 7.00966
thorax -8.08188 -0.254744 5.92721
lowerneck -8.58645 -0.480212 -3.52753
upperneck 25.3721 1.38437 -9.11942
head 9.488 -0.927783 -2.46077
rclavicle -4.77083e-015 7.15625e-014
rhumerus -33.7828 -41.9636 -48.6964
rradius 95.5702
rwrist -42.6754
rhand 8.55811 0.77378
rfingers 7.12502
rthumb 33.7575 -26.0635
lclavicle -4.77083e-015 7.15625e-014
lhumerus -46.4437 7.30412 84.5344
lradius 46.3376
lwrist 7.41788
lhand -14.4737 50.7594
lfingers 7.12502
lthumb 11.6724 80.4143
rfemur -27.4864 -2.95914 10.6644
rtibia 53.2573
rfoot -7.55077 -18.0435
rtoes 11.6723
lfemur -23.9176 0.378083 -27.9542
ltibia 38.501
lfoot 4.41541 -13.8901
ltoes -8.04773
34
root 1.28883 18.1102 -17.6396 146.375 -93.4982 -144.349
lowerback 30.6469 -0.310707 2.53059
upperback 7.67843 0.164275 6.62303
thorax -8.13179 -0.31654 6.05233
lowerneck -8.11874 -0.18792 -3.59609
upperneck 24.7437 1.71211 -8.94344
head 9.18488 -0.717241 -2.32912
rclavicle -3.97569e-014 4.6118e-014
rhumerus -34.5531 -41.8929 -48.4364
rradius 98.4473
rwrist -41.4185
rhand 7.85813 1.11043
rfingers 7.12502
rthumb 33.0921 -25.8703
lclavicle -3.97569e-014 4.6118e-014
lhumerus -46.1073 7.19285 84.2146
lradius 46.7116
lwrist 7.39574
lhand -15.1751 51.2793
lfingers 7.12502
lthumb 10.9958 80.9713
rfemur -27.8129 -4.68851 11.7356
rtibia 53.9881
rfoot -6.85716 -17.141
rtoes 10.6038
lfemur -23.9091 1.07907 -28.5569
ltibia 37.6342
lfoot 7.85515 -15.417
ltoes -7.99907
35
root 1.34625 18.1962 -17.5125 154.278 -94.4191 -151.801
lowerback 30.5098 -0.595209 2.66978
upperback 7.53557 -0.129453 6.6208
thorax -8.20373 -0.444292 6.07516
lowerneck -9.11285 -0.637858 -3.50045
upperneck 25.2237 1.18075 -8.93312
head 9.52687 -0.992572 -2.42089
rclavicle 2.06736e-014 -6.36111e-015
rhumerus -35.1317 -41.8006 -48.3519
rradius 101.245
rwrist -39.5504
rhand 7.14691 1.64673
rfingers 7.12502
rthumb 32.4155 -25.475
lclavicle 2.06736e-014 -6.36111e-015
lhumerus -45.8027 6.41791 84.1253
lradius 47.3061
lwrist 8.10444
lhand -14.5133 50.9951
lfingers 7.12502
lthumb 11.6342 80.6521
rfemur -28.534 -6.82196 13.3799
rtibia 54.774
rfoot -5.9313 -16.2944
rtoes 15.4842
lfemur -24.4247 0.124627 -27.9225
ltibia 36.6919
lfoot 15.1087 -11.7053
ltoes 21.4769
36
root 1.37121 18.289 -17.3681 158.061 -94.8148 -155.313
lowerback 30.1753 -0.742591 2.88054
upperback 7.56347 -0.271426 6.64328
thorax -7.99899 -0.514296 6.01081
lowerneck -8.63098 -0.285627 -3.20958
upperneck 24.6961 1.6419 -9.28039
head 9.2663 -0.752263 -2.52171
rclavicle 1.59028e-014 -3.02153e-014
rhumerus -35.4536 -41.6283 -48.2839
rradius 103.957
rwrist -37.1165
rhand 6.73651 2.07897
rfingers 7.12502
rthumb 32.0248 -25.122
lclavicle 1.59028e-014 -3.02153e-014
lhumerus -45.6644 6.83882 84.0724
lradius 47.9547
lwrist 7.74504
lhand -15.1016 50.7823
lfingers 7.12502
lthumb 11.0667 80.4705
rfemur -28.9852 -7.62144 14.7525
rtibia 55.4035
rfoot -6.10384 -15.0196
rtoes 19.5879
lfemur -24.6154 0.425229 -27.7494
ltibia 35.6222
lfoot 18.0497 -12.7043
ltoes -2.19892
37
root 1.42503 18.3203 -17.2608 159.716 -95.6849 -156.732
lowerback 30.2832 -0.495119 2.85662
upperback 7.39113 0.0775488 6.43922
thorax -8.27888 -0.328309 5.67214
lowerneck -8.5911 -0.807418 -2.32706
upperneck 24.6602 0.723697 -9.04652
head 9.19785 -1.05668 -2.67945
rclavicle -1.11319e-014 -2.70347e-014
rhumerus -37.3337 -42.3553 -47.214
rradius 106.797
rwrist -34.391
rhand 6.04924 2.53062
rfingers 7.12502
rthumb 31.3702 -24.7996
lclavicle -1.11319e-014 -2.70347e-014
lhumerus -45.2495 5.28373 83.9039
lradius 48.5689
lwrist 8.07783
lhand -15.2767 51.085
lfingers 7.12502
lthumb 10.8979 80.7822
rfemur -29.5433 -8.4193 16.017
rtibia 56.113
rfoot -5.42113 -14.0489
rtoes 14.7577
lfemur -24.8015 1.55393 -28.0313
ltibia 34.652
lfoot 19.9871 -14.8195
ltoes -2.60749
38
root 1.46048 18.397 -17.1237 161.358 -96.1801 -158.15
lowerback 30.1433 -0.493455 2.94791
upperback 7.3162 0.115758 6.37569
thorax -8.30029 -0.303013 5.52716
lowerneck -8.3124 -0.816746 -2.22048
upperneck 24.5235 0.646489 -8.92453
head 9.09126 -1.05552 -2.65409
rclavicle -3.65764e-014 -7.4743e-014
rhumerus -37.8803 -41.9474 -46.9167
rradius 109.334
rwrist -31.3938
rhand 4.92015 3.15558
rfingers 7.12502
rthumb 30.2938 -24.3781
lclavicle -3.65764e-014 -7.4743e-014
lhumerus -45.111 4.73211 84.0835
lradius 49.1242
lwrist 7.59166
lhand -15.1566 52.0165
lfingers 7.12502
lthumb 11.0137 81.7076
rfemur -29.8438 -9.26849 17.2685
rtibia 56.47
rfoot -4.24737 -12.3789
rtoes 8.22453
lfemur -24.8401 -0.898421 -27.0642
ltibia 33.7319
lfoot 20.7851 -10.3273
ltoes -11.3748
39
root 1.50349 18.4542 -16.9944 165.791 -96.2024 -162.047
lowerback 29.7071 -0.516615 2.92699
upperback 7.22154 0.0903043 6.61459
thorax -8.19668 -0.31036 5.80964
lowerneck -7.91058 -0.62504 -2.75691
upperneck 23.9119 0.87229 -8.53543
head 8.81319 -0.922353 -2.38271
rclavicle -3.02153e-014 -2.38542e-014
rhumerus -37.2951 -40.7935 -47.3233
rradius 111.674
rwrist -28.137
rhand 3.78252 3.58431
rfingers 7.12502
rthumb 29.208 -24.1435
lclavicle -3.02153e-014 -2.38542e-014
lhumerus -45.1863 4.82242 84.0818
lradius 49.9504
lwrist 7.77392
lhand -14.4203 51.9406
lfingers 7.12502
lthumb 11.7238 81.5925
rfemur -30.5152 -9.42897 18.9623
rtibia 56.6649
rfoot -3.05933 -10.4244
rtoes 4.50643
lfemur -25.4842 -0.977622 -26.1534
ltibia 33.2285
lfoot 17.2717 -15.4186
ltoes -33.4285
40
root 1.5356 18.5024 -16.8564 159.311 -96.7855 -155.64
lowerback 29.7943 -0.633498 1.80786
upperback 7.27502 -0.391275 6.51078
thorax -8.1371 -0.520216 6.52192
lowerneck -7.60922 -0.140767 -3.18924
upperneck 23.5962 1.58071 -8.56071
head 8.6756 -0.61578 -2.23973
rclavicle -3.49861e-014 -3.18055e-015
rhumerus -36.1173 -39.2412 -48.2263
rradius 113.848
rwrist -24.8763
rhand 3.62237 3.83323
rfingers 7.12502
rthumb 29.0551 -23.921
lclavicle -3.49861e-014 -3.18055e-015
lhumerus -45.3747 5.66975 83.9037
lradius 50.8551
lwrist 8.1208
lhand -16.864 51.0329
lfingers 7.12502
lthumb 9.36659 80.8048
rfemur -30.2507 -9.59122 18.9294
rtibia 56.7343
rfoot -2.11884 -8.37113
rtoes 4.28149
lfemur -25.3366 0.198711 -26.785
ltibia 33.0468
lfoot 9.71997 -20.4697
ltoes -39.7635
